<mxfile host="app.diagrams.net" modified="2021-03-18T19:11:02.784Z" agent="5.0 (X11)" etag="7FFzF5TY98W2mhXZhWoa" version="14.4.7" type="github">
  <diagram id="JyMAZlPumg7bHcqdp6tl" name="Page-1">
    <mxGraphModel dx="1422" dy="798" grid="1" gridSize="10" guides="1" tooltips="1" connect="1" arrows="1" fold="1" page="1" pageScale="1" pageWidth="827" pageHeight="1169" math="0" shadow="0">
      <root>
        <mxCell id="0" />
        <mxCell id="1" parent="0" />
        <mxCell id="EbodXILm_X4mG7GQTV8V-17" style="edgeStyle=orthogonalEdgeStyle;rounded=0;orthogonalLoop=1;jettySize=auto;html=1;" edge="1" parent="1" source="EbodXILm_X4mG7GQTV8V-10">
          <mxGeometry relative="1" as="geometry">
            <mxPoint x="440" y="510" as="targetPoint" />
          </mxGeometry>
        </mxCell>
        <mxCell id="EbodXILm_X4mG7GQTV8V-10" value="&lt;div align=&quot;center&quot;&gt;Выступает в роли балансировщика front-end, везде proxy_pass&lt;/div&gt;&lt;div&gt;Base&lt;br&gt;&lt;ol&gt;&lt;li&gt;openssh + кофиги&lt;br&gt;&lt;/li&gt;&lt;li&gt;sudo + конфиги&lt;/li&gt;&lt;li&gt;&lt;code&gt;&lt;span class=&quot;s&quot;&gt;users - &lt;/span&gt;&lt;/code&gt;создание пользователей&lt;/li&gt;&lt;li&gt;необходимы&amp;nbsp; пакеты&lt;/li&gt;&lt;li&gt;&lt;code&gt;node-exporte - вероятно для prometheus&lt;/code&gt;&lt;/li&gt;&lt;li&gt;&lt;div&gt;&lt;code&gt;&lt;span class=&quot;s&quot;&gt;sysctl для&lt;/span&gt;&lt;/code&gt;&lt;code&gt;&lt;span class=&quot;s&quot;&gt;&lt;code&gt; node-exporte&lt;/code&gt;&lt;/span&gt;&lt;/code&gt;&lt;/div&gt;&lt;/li&gt;&lt;li&gt;&lt;div&gt;&lt;span class=&quot;s&quot;&gt;&lt;code&gt;&lt;code&gt;rc -local &lt;/code&gt;перенаправление вывода&lt;/code&gt;&lt;/span&gt;&lt;/div&gt;&lt;/li&gt;&lt;/ol&gt;&lt;div&gt;&lt;code&gt;Services&lt;/code&gt;&lt;/div&gt;&lt;div&gt;&lt;ol&gt;&lt;li&gt;&lt;code&gt;nginx&lt;/code&gt;&lt;/li&gt;&lt;li&gt;&lt;code&gt;ssl&lt;/code&gt;&lt;/li&gt;&lt;li&gt;&lt;code&gt;geoip&lt;br&gt;&lt;/code&gt;&lt;/li&gt;&lt;li&gt;&lt;code&gt;nginx-vts-exporter&lt;/code&gt;&lt;/li&gt;&lt;li&gt;&lt;code&gt;nginx-log-exporter&lt;/code&gt;&lt;/li&gt;&lt;/ol&gt;&lt;/div&gt;&lt;div align=&quot;center&quot;&gt;&lt;code&gt;&lt;/code&gt;&lt;br&gt;&lt;/div&gt;&lt;/div&gt;" style="rounded=0;whiteSpace=wrap;html=1;align=left;" vertex="1" parent="1">
          <mxGeometry x="80" y="40" width="720" height="360" as="geometry" />
        </mxCell>
        <mxCell id="EbodXILm_X4mG7GQTV8V-13" value="&lt;code&gt;app-lb.dev&lt;/code&gt;" style="text;whiteSpace=wrap;html=1;" vertex="1" parent="1">
          <mxGeometry x="80" width="80" height="30" as="geometry" />
        </mxCell>
        <mxCell id="EbodXILm_X4mG7GQTV8V-14" value="&lt;div align=&quot;center&quot;&gt;Обработчики запросов back-end&lt;br&gt;&lt;/div&gt;&lt;div&gt;Base&lt;br&gt;&lt;ol&gt;&lt;li&gt;openssh + кофиги&lt;br&gt;&lt;/li&gt;&lt;li&gt;sudo + конфиги&lt;/li&gt;&lt;li&gt;&lt;code&gt;&lt;span class=&quot;s&quot;&gt;users - &lt;/span&gt;&lt;/code&gt;создание пользователей&lt;/li&gt;&lt;li&gt;необходимы&amp;nbsp; пакеты&lt;/li&gt;&lt;li&gt;&lt;code&gt;node-exporte - вероятно для prometheus&lt;/code&gt;&lt;/li&gt;&lt;li&gt;&lt;div&gt;&lt;code&gt;&lt;span class=&quot;s&quot;&gt;sysctl для&lt;/span&gt;&lt;/code&gt;&lt;code&gt;&lt;span class=&quot;s&quot;&gt;&lt;code&gt; node-exporte&lt;/code&gt;&lt;/span&gt;&lt;/code&gt;&lt;/div&gt;&lt;/li&gt;&lt;li&gt;&lt;div&gt;&lt;span class=&quot;s&quot;&gt;&lt;code&gt;&lt;code&gt;rc -local &lt;/code&gt;перенаправление вывода&lt;/code&gt;&lt;/span&gt;&lt;/div&gt;&lt;/li&gt;&lt;/ol&gt;&lt;div&gt;&lt;code&gt;Services&lt;/code&gt;&lt;/div&gt;&lt;div&gt;&lt;ol&gt;&lt;li&gt;&lt;code&gt;nginx&lt;/code&gt;&lt;/li&gt;&lt;li&gt;&lt;code&gt;ssl&lt;/code&gt;&lt;/li&gt;&lt;li&gt;&lt;code&gt;geoip&lt;br&gt;&lt;/code&gt;&lt;/li&gt;&lt;li&gt;&lt;code&gt;nginx-vts-exporter&lt;/code&gt;&lt;/li&gt;&lt;li&gt;&lt;code&gt;nginx-log-exporter&lt;/code&gt;&lt;/li&gt;&lt;li&gt;&lt;code&gt;php&lt;/code&gt;&lt;/li&gt;&lt;li&gt;&lt;code&gt;rsync pip s3cmd&lt;/code&gt;&lt;br&gt;&lt;/li&gt;&lt;/ol&gt;&lt;/div&gt;&lt;div align=&quot;center&quot;&gt;&lt;code&gt;&lt;/code&gt;&lt;br&gt;&lt;/div&gt;&lt;/div&gt;" style="rounded=0;whiteSpace=wrap;html=1;align=left;" vertex="1" parent="1">
          <mxGeometry x="80" y="520" width="720" height="360" as="geometry" />
        </mxCell>
        <mxCell id="EbodXILm_X4mG7GQTV8V-15" value="app-dev и app-qa" style="text;whiteSpace=wrap;html=1;" vertex="1" parent="1">
          <mxGeometry x="80" y="480" width="100" height="30" as="geometry" />
        </mxCell>
        <mxCell id="EbodXILm_X4mG7GQTV8V-16" value="&lt;div&gt;&lt;code&gt;&lt;span class=&quot;s&quot;&gt;adserving - группы нет&lt;/span&gt;&lt;/code&gt;&lt;/div&gt;&lt;div&gt;&lt;br&gt;&lt;code&gt;&lt;span class=&quot;s&quot;&gt;&lt;code&gt;common - группы нет&lt;br&gt;&lt;/code&gt;&lt;/span&gt;&lt;/code&gt;&lt;/div&gt;&lt;div&gt;&lt;br&gt;&lt;code&gt;&lt;span class=&quot;s&quot;&gt;&lt;code&gt;&lt;span class=&quot;nv&quot;&gt;role_haproxy - тэга нет&lt;/span&gt;&lt;/code&gt;&lt;/span&gt;&lt;/code&gt;&lt;/div&gt;&lt;div&gt;&lt;code&gt;&lt;span class=&quot;s&quot;&gt;&lt;code&gt;&lt;span class=&quot;nv&quot;&gt;&lt;br&gt;&lt;/span&gt;&lt;/code&gt;&lt;/span&gt;&lt;/code&gt;&lt;/div&gt;&lt;div&gt;&lt;code&gt;&lt;span class=&quot;s&quot;&gt;&lt;/span&gt;&lt;/code&gt;&lt;/div&gt;" style="text;whiteSpace=wrap;html=1;" vertex="1" parent="1">
          <mxGeometry x="80" y="910" width="320" height="110" as="geometry" />
        </mxCell>
      </root>
    </mxGraphModel>
  </diagram>
</mxfile>
